<?xml version="1.0" standalone="no"?><!DOCTYPE svg PUBLIC "-//W3C//DTD SVG 1.1//EN" "http://www.w3.org/Graphics/SVG/1.1/DTD/svg11.dtd"><svg class="icon" width="100px" height="100.00px" viewBox="0 0 1024 1024" version="1.1" xmlns="http://www.w3.org/2000/svg"><path fill="#000000" d="M806.7072 470.528A290.816 290.816 0 0 0 252.16 371.4048a217.5488 217.5488 0 0 0-9.8304 428.1344 149.1456 149.1456 0 0 0 37.0176 4.352h504.4224a167.8336 167.8336 0 0 0 167.7824-167.7824c1.0752-82.7904-62.1056-154.6752-144.896-165.5808z m-44.6464 44.6464a26.2656 26.2656 0 0 0 19.6096 7.6288h4.352a113.3056 113.3056 0 0 1 0 226.6112H280.5248a114.3808 114.3808 0 0 1-26.1632-3.2768 164.1984 164.1984 0 0 1 19.6096-324.6592 27.3408 27.3408 0 0 0 22.9888-17.408 237.3632 237.3632 0 0 1 458.6496 84.992v3.2768c-1.0752 10.9056 1.0752 17.408 6.5536 22.8864zM489.6768 557.6704a23.1936 23.1936 0 0 0-30.72 0l-27.2384 27.2384V458.5472a21.8112 21.8112 0 1 0-43.5712 0v126.3616l-27.2384-27.2384a23.1936 23.1936 0 0 0-30.72 0 21.0432 21.0432 0 0 0 0 30.72l64.256 64.256c1.0752 1.0752 2.2016 1.0752 3.2768 2.2016s2.2016 1.0752 3.2768 2.2016c1.0752 0 2.2016 1.0752 3.2768 1.0752h10.9056c1.0752 0 2.2016-1.0752 3.2768-1.0752a22.784 22.784 0 0 0 6.5536-4.352l64.256-64.256a21.0432 21.0432 0 0 0 0-30.72zM670.72 508.672l-64.4608-64.3072-1.0752-1.0752c-1.0752 0-1.0752-1.0752-2.2016-1.0752s-1.0752-1.0752-2.2016-1.0752-1.0752-1.0752-2.2016-1.0752-1.0752 0-2.2016-1.0752h-13.056c-1.0752 0-1.0752 0-2.2016 1.0752a1.0752 1.0752 0 0 0-1.0752 1.0752c-1.0752 0-1.0752 1.0752-2.2016 1.0752l-1.0752 1.0752c-1.0752 0-1.0752 1.0752-2.2016 1.0752L510.3616 508.672a21.5552 21.5552 0 0 0 30.72 30.72L568.32 512v126.3616a21.8112 21.8112 0 0 0 43.5712 0V512l27.2384 27.2384a21.0432 21.0432 0 0 0 30.72 0 20.48 20.48 0 0 0 1.0752-30.72z" /></svg>