<svg xmlns="http://www.w3.org/2000/svg" viewBox="0 0 16 16"><defs><style>.cls-1{opacity:0;}.cls-2{fill:#fff;}.cls-3{fill:#231815;}</style></defs><title>QGC16X16</title><g id="图层_3" data-name="图层 3" class="cls-1"><circle class="cls-2" cx="8" cy="8" r="7"/></g><g id="图层_2" data-name="图层 2"><path class="cls-3" d="M8,2A6,6,0,1,1,2,8,6,6,0,0,1,8,2M8,1a7,7,0,1,0,7,7A7,7,0,0,0,8,1Z"/><path class="cls-3" d="M8,3.5a.5.5,0,0,0-.5.5V8a.5.5,0,0,0,1,0V4A.5.5,0,0,0,8,3.5Z"/><path class="cls-3" d="M8,7.5a.47.47,0,0,0-.35.15.48.48,0,0,0,0,.7l2.12,2.12a.49.49,0,0,0,.35.15.47.47,0,0,0,.35-.15.48.48,0,0,0,0-.7L8.35,7.65A.47.47,0,0,0,8,7.5Z"/></g></svg>