<svg xmlns="http://www.w3.org/2000/svg" viewBox="0 0 16 16"><defs><style>.cls-1{opacity:0;}.cls-2{fill:#fff;}.cls-3{fill:#231815;}</style></defs><title>QGC16X16</title><g id="图层_3" data-name="图层 3" class="cls-1"><circle class="cls-2" cx="8" cy="8" r="7"/></g><g id="图层_2" data-name="图层 2"><path class="cls-3" d="M11,7.5a.47.47,0,0,0-.35.15l-4.6,4.59a.5.5,0,0,0,0,.71.5.5,0,0,0,.35.15A.51.51,0,0,0,6.76,13l4.59-4.6a.48.48,0,0,0,0-.7A.47.47,0,0,0,11,7.5Z"/><path class="cls-3" d="M6.4,2.9a.5.5,0,0,0-.35.15.5.5,0,0,0,0,.71l4.6,4.59a.48.48,0,0,0,.7,0,.48.48,0,0,0,0-.7L6.76,3.05A.51.51,0,0,0,6.4,2.9Z"/></g></svg>