<svg xmlns="http://www.w3.org/2000/svg" viewBox="0 0 16 16"><defs><style>.cls-1{opacity:0;}.cls-2{fill:#fff;}.cls-3{fill:#231815;}</style></defs><title>QGC16X16</title><g id="图层_3" data-name="图层 3" class="cls-1"><circle class="cls-2" cx="8" cy="8" r="7"/></g><g id="图层_2" data-name="图层 2"><path class="cls-3" d="M6,4.5H5.5A.5.5,0,0,0,5,5v6a.5.5,0,0,0,.5.5H6a.5.5,0,0,0,.5-.5V5A.5.5,0,0,0,6,4.5Z"/><path class="cls-3" d="M10.5,4.5H10a.5.5,0,0,0-.5.5v6a.5.5,0,0,0,.5.5h.5A.5.5,0,0,0,11,11V5a.5.5,0,0,0-.5-.5Z"/></g></svg>