<svg xmlns="http://www.w3.org/2000/svg" viewBox="0 0 16 16"><defs><style>.cls-1{opacity:0;}.cls-2{fill:#fff;}.cls-3{fill:#231815;}</style></defs><title>QGC16X16</title><g id="图层_3" data-name="图层 3" class="cls-1"><circle class="cls-2" cx="8" cy="8" r="7"/></g><g id="图层_2" data-name="图层 2"><polygon class="cls-3" points="5.75 11.06 5.75 5 11 8.03 5.76 11.06 5.75 11.06"/><path class="cls-3" d="M6.25,5.86,10,8,6.25,10.19V5.86M5.76,4.5a.5.5,0,0,0-.51.5v6.06a.5.5,0,0,0,.51.5A.47.47,0,0,0,6,11.49l5.24-3a.51.51,0,0,0,0-.88L6,4.57a.47.47,0,0,0-.25-.07Z"/></g></svg>