<svg xmlns="http://www.w3.org/2000/svg" viewBox="0 0 16 16"><defs><style>.cls-1{opacity:0;}.cls-2{fill:#ff7761;}.cls-3{fill:#fff;}</style></defs><title>QGC16X16</title><g id="图层_2" data-name="图层 2"><circle class="cls-2" cx="8" cy="8" r="7"/><path class="cls-3" d="M8,2A6,6,0,1,1,2,8,6,6,0,0,1,8,2M8,1a7,7,0,1,0,7,7A7,7,0,0,0,8,1Z"/><path class="cls-3" d="M5,10.87,5.78,10A3.47,3.47,0,0,0,8,10.94c1,0,1.6-.44,1.6-1.09s-.57-.92-1.36-1.24L7.11,8.15a2.27,2.27,0,0,1-1.73-2C5.38,4.91,6.55,4,8.17,4a3.78,3.78,0,0,1,2.56,1l-.7.77a2.82,2.82,0,0,0-1.86-.69c-.87,0-1.43.38-1.43,1S7.42,7,8.11,7.22l1.16.45c1,.39,1.73.95,1.73,2.09S9.87,12,8,12A4.45,4.45,0,0,1,5,10.87Z"/></g></svg>