<svg xmlns="http://www.w3.org/2000/svg" viewBox="0 0 16 16"><defs><style>.cls-1{opacity:0;}.cls-2{fill:#fff;}.cls-3{fill:#231815;}</style></defs><title>QGC16X16</title><g id="图层_3" data-name="图层 3" class="cls-1"><circle class="cls-2" cx="8" cy="8" r="7"/></g><g id="图层_2" data-name="图层 2"><path class="cls-3" d="M5,7.5a.47.47,0,0,0-.35.15.48.48,0,0,0,0,.7L9.24,13a.51.51,0,0,0,.36.15A.5.5,0,0,0,10,13a.5.5,0,0,0,0-.71L5.35,7.65A.47.47,0,0,0,5,7.5Z"/><path class="cls-3" d="M9.6,2.9a.51.51,0,0,0-.36.15L4.65,7.65a.48.48,0,0,0,0,.7.48.48,0,0,0,.7,0L10,3.76a.5.5,0,0,0,0-.71A.5.5,0,0,0,9.6,2.9Z"/></g></svg>