<svg xmlns="http://www.w3.org/2000/svg" viewBox="0 0 16 16"><defs><style>.cls-1{opacity:0;}.cls-2{fill:#fff;}.cls-3{fill:#231815;}</style></defs><title>QGC16X16</title><g id="图层_3" data-name="图层 3" class="cls-1"><circle class="cls-2" cx="8" cy="8" r="7"/></g><g id="图层_2" data-name="图层 2"><path class="cls-3" d="M11.61,4a.43.43,0,0,0-.28.11L4.11,11.33a.4.4,0,0,0,0,.56.41.41,0,0,0,.56,0l7.22-7.22a.4.4,0,0,0,0-.56A.43.43,0,0,0,11.61,4Z"/><path class="cls-3" d="M4.39,4a.43.43,0,0,0-.28.11.4.4,0,0,0,0,.56l7.22,7.22a.41.41,0,0,0,.56,0,.4.4,0,0,0,0-.56L4.67,4.11A.43.43,0,0,0,4.39,4Z"/></g></svg>